<svg id="Group_321" data-name="Group 321" xmlns="http://www.w3.org/2000/svg" xmlns:xlink="http://www.w3.org/1999/xlink" width="24.39" height="12.17" viewBox="0 0 24.39 12.17">
  <defs>
    <clipPath id="clip-path">
      <rect id="Rectangle_1578" data-name="Rectangle 1578" width="24.39" height="12.17" transform="translate(0 0)" fill="#949494"/>
    </clipPath>
  </defs>
  <g id="Group_320" data-name="Group 320" transform="translate(0 0)" clip-path="url(#clip-path)">
    <path id="Path_12123" data-name="Path 12123" d="M24.39,6.043h-.083C11.187-6.98.969,4.93.066,6.043H0l.036.036C.014,6.11,0,6.126,0,6.126H.083c13.12,13.023,23.338,1.113,24.243,0h.064a.442.442,0,0,0-.036-.036c.025-.03.036-.047.036-.047M12.195,10.222a4.137,4.137,0,1,1,4.137-4.137,4.137,4.137,0,0,1-4.137,4.137" transform="translate(0 0)" fill="#949494"/>
  </g>
</svg>
